<svg
    xmlns="http://www.w3.org/2000/svg"
    version="1.1"
    viewBox="0 0 135.40625 211.75" >
    
    <path
         style="fill:#d35f5f"
         d="M 0,75.21875 0,151.3125 C 0,184.55072 27.18921,211.75 60.4375,211.75 l 14.53125,0 c 33.2483,0 60.4375,-27.19928 60.4375,-60.4375 l 0,-76.09375 -13.9375,0 0,76.15625 c 0,26.392 -21.6,48 -48,48 l -11.53125,0 c -26.4,0 -48,-21.608 -48,-48 l 0,-76.15625 -13.9375,0 z"
         id="micOutter"
    />

    <path
         style="fill:#ac9393"
         d="M 63,0 C 41.49992,0 23.90625,17.59367 23.90625,39.09375 l 0,2.59375 60.53125,0 0,15.625 -60.53125,0 0,15.625 60.53125,0 0,15.59375 -60.53125,0 0,15.625 60.53125,0 0,15.625 -60.53125,0 0,30.875 C 23.90625,172.14982 41.49992,189.75 63,189.75 l 9.375,0 c 21.50008,0 39.09375,-17.60018 39.09375,-39.09375 l 0,-111.5625 C 111.46875,17.59367 93.87508,0 72.375,0 L 63,0 z"
         id="micInner"
    />

 </svg>
